<svg width="639" height="458" viewBox="0 0 639 458" fill="none" xmlns="http://www.w3.org/2000/svg">
<path d="M459.957 111.902H437.51V142.802H459.957V111.902Z" fill="#B0D8FF"/>
<path d="M458.592 113.326H438.862V141.378H458.592V113.326Z" fill="white"/>
<path d="M499.198 85.1704H461.459V135.433H499.198V85.1704Z" fill="#B0D8FF"/>
<path d="M497.014 87.431H463.644V133.158H497.014V87.431Z" fill="white"/>
<path d="M108.999 64.0906H241.823C246.192 64.0906 249.742 67.8926 249.742 72.6047V221.704C249.742 226.402 246.206 230.218 241.823 230.218H108.999C104.629 230.218 101.079 226.416 101.079 221.704V72.6047C101.079 67.9073 104.629 64.0906 108.999 64.0906Z" fill="#B0D8FF"/>
<path d="M108.507 66.9385H239.68C243.789 66.9385 247.107 70.5203 247.107 74.9241V222.218C247.107 226.637 243.776 230.204 239.68 230.204H108.507C104.397 230.204 101.079 226.622 101.079 222.218V74.9241C101.079 70.5056 104.411 66.9385 108.507 66.9385Z" fill="url(#paint0_linear_623_83)"/>
<path d="M109.968 73.8965H239.174C240.594 73.8965 241.741 75.1296 241.741 76.6563V101.729C241.741 103.256 240.594 104.489 239.174 104.489H109.968C108.548 104.489 107.401 103.256 107.401 101.729V76.6563C107.415 75.1296 108.562 73.8965 109.968 73.8965Z" fill="#D5E1F7"/>
<path d="M109.231 73.1039H238.437C239.857 73.1039 241.004 74.3369 241.004 75.8636V100.936C241.004 102.463 239.857 103.696 238.437 103.696H109.231C107.811 103.696 106.664 102.463 106.664 100.936V75.8489C106.664 74.3369 107.811 73.1039 109.231 73.1039Z" fill="white"/>
<path d="M110.036 194.459H239.243C240.663 194.459 241.81 195.692 241.81 197.219V222.291C241.81 223.818 240.663 225.051 239.243 225.051H110.036C108.616 225.051 107.469 223.818 107.469 222.291V197.219C107.469 195.692 108.616 194.459 110.036 194.459Z" fill="#D5E1F7"/>
<path d="M109.231 193.358H238.437C239.857 193.358 241.004 194.591 241.004 196.118V221.191C241.004 222.717 239.857 223.95 238.437 223.95H109.231C107.811 223.95 106.664 222.717 106.664 221.191V196.118C106.664 194.591 107.811 193.358 109.231 193.358Z" fill="white"/>
<path d="M113.272 197.615H151.585C152.677 197.615 153.551 198.569 153.551 199.729C153.551 200.903 152.664 201.843 151.585 201.843H113.272C112.18 201.843 111.292 200.889 111.292 199.729C111.306 198.569 112.194 197.615 113.272 197.615Z" fill="#D5E1F7"/>
<path d="M113.272 207.627H235.993C237.085 207.627 237.959 208.581 237.959 209.741C237.959 210.915 237.072 211.854 235.993 211.854H113.272C112.18 211.854 111.292 210.9 111.292 209.741C111.306 208.581 112.194 207.627 113.272 207.627Z" fill="#D5E1F7"/>
<path d="M113.272 215.436H235.993C237.085 215.436 237.959 216.39 237.959 217.55C237.959 218.724 237.072 219.664 235.993 219.664H113.272C112.18 219.664 111.292 218.71 111.292 217.55C111.306 216.39 112.194 215.436 113.272 215.436Z" fill="#EBF5FF"/>
<path d="M135.856 111.638V187.619C135.856 188.749 134.996 189.674 133.944 189.674H109.313C108.261 189.674 107.401 188.749 107.401 187.619V111.638C107.401 110.507 108.261 109.582 109.313 109.582H133.944C134.996 109.582 135.856 110.507 135.856 111.638Z" fill="#D5E1F7"/>
<path d="M135.282 110.581V186.562C135.282 187.692 134.422 188.617 133.371 188.617H108.739C107.688 188.617 106.828 187.692 106.828 186.562V110.581C106.828 109.45 107.688 108.525 108.739 108.525H133.371C134.422 108.525 135.282 109.45 135.282 110.581Z" fill="white"/>
<path d="M242.096 113.428V185.813C242.096 187.941 240.499 189.659 238.519 189.659H145.646C143.666 189.659 142.068 187.941 142.068 185.813V113.428C142.068 111.3 143.666 109.582 145.646 109.582H238.519C240.499 109.582 242.096 111.315 242.096 113.428Z" fill="#D5E1F7"/>
<path d="M240.99 112.371V184.756C240.99 186.885 239.393 188.602 237.413 188.602H144.54C142.56 188.602 140.962 186.885 140.962 184.756V112.371C140.962 110.243 142.56 108.525 144.54 108.525H237.413C239.393 108.525 240.99 110.258 240.99 112.371Z" fill="white"/>
<path d="M146.697 111.858H173.554C174.578 111.858 175.411 112.753 175.411 113.854V114.118C175.411 115.219 174.578 116.115 173.554 116.115H146.697C145.673 116.115 144.84 115.219 144.84 114.118V113.854C144.84 112.753 145.673 111.858 146.697 111.858Z" fill="#00D967"/>
<path d="M146.752 121.884H234.532C235.583 121.884 236.444 122.809 236.444 123.939V124.086C236.444 125.216 235.583 126.141 234.532 126.141H146.752C145.7 126.141 144.84 125.216 144.84 124.086V123.939C144.84 122.794 145.7 121.884 146.752 121.884Z" fill="#D5E1F7"/>
<path d="M146.752 129.679H234.532C235.583 129.679 236.444 130.603 236.444 131.734V131.881C236.444 133.011 235.583 133.936 234.532 133.936H146.752C145.7 133.936 144.84 133.011 144.84 131.881V131.734C144.84 130.603 145.7 129.679 146.752 129.679Z" fill="#EBF5FF"/>
<path d="M146.697 137.488H173.554C174.578 137.488 175.411 138.384 175.411 139.484V139.749C175.411 140.85 174.578 141.745 173.554 141.745H146.697C145.673 141.745 144.84 140.85 144.84 139.749V139.484C144.84 138.384 145.673 137.488 146.697 137.488Z" fill="#00D967"/>
<path d="M146.752 147.499H234.532C235.583 147.499 236.444 148.424 236.444 149.555V149.701C236.444 150.832 235.583 151.757 234.532 151.757H146.752C145.7 151.757 144.84 150.832 144.84 149.701V149.555C144.84 148.424 145.7 147.499 146.752 147.499Z" fill="#D5E1F7"/>
<path d="M146.752 155.309H234.532C235.583 155.309 236.444 156.234 236.444 157.364V157.511C236.444 158.641 235.583 159.566 234.532 159.566H146.752C145.7 159.566 144.84 158.641 144.84 157.511V157.364C144.84 156.234 145.7 155.309 146.752 155.309Z" fill="#EBF5FF"/>
<path d="M146.697 163.118H173.554C174.578 163.118 175.411 164.014 175.411 165.115V165.379C175.411 166.48 174.578 167.376 173.554 167.376H146.697C145.673 167.376 144.84 166.48 144.84 165.379V165.115C144.84 163.999 145.673 163.118 146.697 163.118Z" fill="#00D967"/>
<path d="M146.752 173.13H234.532C235.583 173.13 236.444 174.055 236.444 175.185V175.332C236.444 176.462 235.583 177.387 234.532 177.387H146.752C145.7 177.387 144.84 176.462 144.84 175.332V175.185C144.84 174.04 145.7 173.13 146.752 173.13Z" fill="#D5E1F7"/>
<path d="M146.752 180.939H234.532C235.583 180.939 236.444 181.864 236.444 182.994V183.141C236.444 184.272 235.583 185.196 234.532 185.196H146.752C145.7 185.196 144.84 184.272 144.84 183.141V182.994C144.84 181.849 145.7 180.939 146.752 180.939Z" fill="#EBF5FF"/>
<path d="M111.402 111.858H130.462C131.964 111.858 133.18 113.164 133.18 114.779V133.334C133.18 134.949 131.964 136.255 130.462 136.255H111.402C109.9 136.255 108.685 134.949 108.685 133.334V114.779C108.685 113.179 109.9 111.858 111.402 111.858Z" fill="#DAEBFF"/>
<path d="M111.402 140.732H130.462C131.964 140.732 133.18 142.039 133.18 143.653V162.208C133.18 163.823 131.964 165.13 130.462 165.13H111.402C109.9 165.13 108.685 163.823 108.685 162.208V143.653C108.685 142.039 109.9 140.732 111.402 140.732Z" fill="#DAEBFF"/>
<path d="M145.086 91.6881H169.13C170.618 91.6881 171.834 92.9799 171.834 94.5946V97.7948C171.834 99.3948 170.632 100.701 169.13 100.701H145.086C143.598 100.701 142.382 99.4095 142.382 97.7948V94.5946C142.382 92.9946 143.584 91.6881 145.086 91.6881Z" fill="#DAEBFF"/>
<path d="M112.303 91.6881H136.347C137.836 91.6881 139.051 92.9799 139.051 94.5946V97.7948C139.051 99.3948 137.849 100.701 136.347 100.701H112.303C110.815 100.701 109.599 99.4095 109.599 97.7948V94.5946C109.599 92.9946 110.801 91.6881 112.303 91.6881Z" fill="#DAEBFF"/>
<path d="M178.155 91.6881H202.2C203.688 91.6881 204.903 92.9799 204.903 94.5946V97.7948C204.903 99.3948 203.702 100.701 202.2 100.701H178.155C176.667 100.701 175.452 99.4095 175.452 97.7948V94.5946C175.452 92.9946 176.667 91.6881 178.155 91.6881Z" fill="#DAEBFF"/>
<path d="M211.225 91.6881H235.269C236.758 91.6881 237.973 92.9799 237.973 94.5946V97.7948C237.973 99.3948 236.771 100.701 235.269 100.701H211.225C209.737 100.701 208.521 99.4095 208.521 97.7948V94.5946C208.535 92.9946 209.737 91.6881 211.225 91.6881Z" fill="#DAEBFF"/>
<path d="M111.743 76.0838H234.996C236.648 76.0838 237.973 77.5224 237.973 79.2839V85.4346C237.973 87.2108 236.635 88.6347 234.996 88.6347H111.743C110.091 88.6347 108.766 87.1961 108.766 85.4346V79.2986C108.766 77.5224 110.091 76.0838 111.743 76.0838Z" fill="#DAEBFF"/>
<path d="M252.146 373.153C274.014 373.153 291.742 368.026 291.742 361.703C291.742 355.379 274.014 350.253 252.146 350.253C230.277 350.253 212.549 355.379 212.549 361.703C212.549 368.026 230.277 373.153 252.146 373.153Z" fill="#E2EEFA"/>
<path d="M154.452 350.253C164.934 350.253 173.431 347.387 173.431 343.852C173.431 340.318 164.934 337.452 154.452 337.452C143.97 337.452 135.473 340.318 135.473 343.852C135.473 347.387 143.97 350.253 154.452 350.253Z" fill="#E2EEFA"/>
<path d="M288.56 356.8C306.553 356.8 321.138 352.942 321.138 348.183C321.138 343.424 306.553 339.566 288.56 339.566C270.568 339.566 255.982 343.424 255.982 348.183C255.982 352.942 270.568 356.8 288.56 356.8Z" fill="#E2EEFA"/>
<path d="M472.464 339.757C500.817 339.757 523.802 337.069 523.802 333.753C523.802 330.437 500.817 327.749 472.464 327.749C444.11 327.749 421.125 330.437 421.125 333.753C421.125 337.069 444.11 339.757 472.464 339.757Z" fill="#E2EEFA"/>
<path d="M371.658 369.042C379.847 369.042 386.486 366.821 386.486 364.081C386.486 361.34 379.847 359.119 371.658 359.119C363.468 359.119 356.83 361.34 356.83 364.081C356.83 366.821 363.468 369.042 371.658 369.042Z" fill="#E2EEFA"/>
<path d="M500.973 315.007H95.7544V317.914H500.973V315.007Z" fill="#D3E2F9"/>
<path d="M428.403 157.364H517.945C520.758 157.364 523.038 159.816 523.038 162.84V328.483C523.038 331.507 520.758 333.958 517.945 333.958H428.403C425.59 333.958 423.31 331.507 423.31 328.483V162.84C423.324 159.816 425.59 157.364 428.403 157.364Z" fill="#D1E3FF"/>
<path d="M473.174 286.867H432.431V323.8H473.174V286.867Z" fill="#E3EEFF"/>
<path d="M513.603 286.867H473.174V323.8H513.603V286.867Z" fill="#E3EEFF"/>
<path d="M513.603 166.803H432.431V198.731H513.603V166.803Z" fill="#F5FCFF"/>
<path d="M513.603 206.819H432.431V238.747H513.603V206.819Z" fill="#F5FCFF"/>
<path d="M513.603 246.85H432.431V278.778H513.603V246.85Z" fill="#F5FCFF"/>
<path d="M464.34 300.797C465.931 300.797 467.221 299.483 467.221 297.861C467.221 296.24 465.931 294.926 464.34 294.926C462.749 294.926 461.459 296.24 461.459 297.861C461.459 299.483 462.749 300.797 464.34 300.797Z" fill="#D1E3FF"/>
<path d="M482.527 300.797C484.118 300.797 485.408 299.483 485.408 297.861C485.408 296.24 484.118 294.926 482.527 294.926C480.936 294.926 479.646 296.24 479.646 297.861C479.646 299.483 480.936 300.797 482.527 300.797Z" fill="#D1E3FF"/>
<path d="M441.292 173.923H434.506V198.276H441.292V173.923Z" fill="#D1E3FF" stroke="#B6D4FF" stroke-miterlimit="10"/>
<path d="M448.078 173.923H441.292V198.276H448.078V173.923Z" fill="#D1E3FF" stroke="#B6D4FF" stroke-miterlimit="10"/>
<path d="M454.878 173.923H448.092V198.276H454.878V173.923Z" fill="#D1E3FF" stroke="#B6D4FF" stroke-miterlimit="10"/>
<path d="M461.664 173.923H454.878V198.276H461.664V173.923Z" fill="#D1E3FF" stroke="#B6D4FF" stroke-miterlimit="10"/>
<path d="M468.463 173.923H461.677V198.276H468.463V173.923Z" fill="#D1E3FF" stroke="#B6D4FF" stroke-miterlimit="10"/>
<path d="M481.421 214.262H474.635V238.615H481.421V214.262Z" fill="#D1E3FF" stroke="#B6D4FF" stroke-miterlimit="10"/>
<path d="M488.207 214.262H481.421V238.615H488.207V214.262Z" fill="#D1E3FF" stroke="#B6D4FF" stroke-miterlimit="10"/>
<path d="M464.477 224.728H440.664V231.672H464.477V224.728Z" fill="#D1E3FF" stroke="#B6D4FF" stroke-miterlimit="10"/>
<path d="M466.784 217.785H442.972V224.728H466.784V217.785Z" fill="#D1E3FF" stroke="#B6D4FF" stroke-miterlimit="10"/>
<path d="M467.139 231.672H443.327V238.615H467.139V231.672Z" fill="#D1E3FF" stroke="#B6D4FF" stroke-miterlimit="10"/>
<path d="M495.006 214.262H488.22V238.615H495.006V214.262Z" fill="#D1E3FF" stroke="#B6D4FF" stroke-miterlimit="10"/>
<path d="M501.792 214.262H495.006V238.615H501.792V214.262Z" fill="#D1E3FF" stroke="#B6D4FF" stroke-miterlimit="10"/>
<path d="M508.578 214.262H501.792V238.615H508.578V214.262Z" fill="#D1E3FF" stroke="#B6D4FF" stroke-miterlimit="10"/>
<path d="M446.126 254.425H439.34V278.778H446.126V254.425Z" fill="#D1E3FF" stroke="#B6D4FF" stroke-miterlimit="10"/>
<path d="M452.912 254.425H446.126V278.778H452.912V254.425Z" fill="#D1E3FF" stroke="#B6D4FF" stroke-miterlimit="10"/>
<path d="M459.711 254.425H452.925V278.778H459.711V254.425Z" fill="#D1E3FF" stroke="#B6D4FF" stroke-miterlimit="10"/>
<path d="M466.497 254.425H459.711V278.778H466.497V254.425Z" fill="#D1E3FF" stroke="#B6D4FF" stroke-miterlimit="10"/>
<path d="M473.297 254.425H466.511V278.778H473.297V254.425Z" fill="#D1E3FF" stroke="#B6D4FF" stroke-miterlimit="10"/>
<path d="M483.25 196.323L476.874 198.731L468.627 175.89L474.99 173.482L483.25 196.323Z" fill="#D1E3FF" stroke="#B6D4FF" stroke-miterlimit="10"/>
<path d="M490.555 196.323L484.179 198.731L475.932 175.89L482.308 173.482L490.555 196.323Z" fill="#D1E3FF" stroke="#B6D4FF" stroke-miterlimit="10"/>
<path d="M504.004 194.092L498.584 198.291L484.234 178.84L489.654 174.657L504.004 194.092Z" fill="#D1E3FF" stroke="#B6D4FF" stroke-miterlimit="10"/>
<path d="M494.215 271.908C499.84 271.908 504.4 267.242 504.4 261.486C504.4 255.73 499.84 251.063 494.215 251.063C488.589 251.063 484.029 255.73 484.029 261.486C484.029 267.242 488.589 271.908 494.215 271.908Z" fill="#D1E3FF" stroke="#B6D4FF" stroke-miterlimit="10"/>
<path d="M494.215 274.007C487.442 274.007 481.967 268.4 481.967 261.471C481.967 254.542 487.456 248.935 494.215 248.935" stroke="#B6D4FF" stroke-width="2.32" stroke-miterlimit="10"/>
<path d="M501.205 276.694H486.473V278.778H501.205V276.694Z" fill="#D1E3FF" stroke="#B6D4FF" stroke-miterlimit="10"/>
<path d="M494.215 271.174H493.259V277.134H494.215V271.174Z" fill="#D1E3FF" stroke="#B6D4FF" stroke-miterlimit="10"/>
<path d="M164.897 317.503C164.897 317.503 179.616 316.651 179.63 313.436C179.644 310.941 170.646 313.055 170.646 313.055C170.646 313.055 180.49 309.987 185.037 307.477C186.034 306.919 187.058 306.332 187.754 305.392C188.45 304.453 188.751 303.058 188.191 302.016C187.426 300.607 185.583 300.489 184.081 300.68C178.019 301.473 173.759 304.952 168.311 307.902C172.311 305.744 175.861 302.985 179.179 299.784C182.238 296.849 185.801 294.089 187.836 290.155C189.119 287.689 189.625 284.048 187.358 282.037C185.16 280.07 182.019 280.995 179.603 281.905C173.131 284.356 167.451 289.201 163.723 295.381C164.679 292.489 165.43 289.524 165.962 286.5C166.181 285.281 166.249 283.784 165.321 283.065C164.106 282.14 162.494 283.387 161.552 284.621C159.258 287.645 157.538 291.094 156.446 294.823C157.183 286.514 157.92 278.044 156.241 269.912C155.859 268.047 155.326 266.168 154.247 264.656C153.169 263.144 151.435 262.058 149.673 262.264C148.008 262.455 146.629 263.732 145.509 265.082C137.972 274.139 137.672 287.733 144.785 297.172C142.983 295.146 140.962 293.37 138.764 291.872C138.272 291.535 137.549 291.256 137.18 291.74C136.989 291.99 136.989 292.342 137.016 292.665C137.358 296.614 139.815 299.917 142.177 302.97C137.399 296.966 129.875 293.619 122.543 294.236C121.656 294.309 120.659 294.515 120.208 295.351C119.949 295.836 119.935 296.408 119.99 296.966C120.386 300.929 123.636 303.792 126.831 305.818C129.52 307.506 132.347 308.93 135.173 310.339C133.562 310.089 131.923 310.031 130.285 310.148C129.916 310.178 129.493 310.236 129.275 310.559C128.851 311.161 129.452 311.968 130.026 312.409C134.163 315.594 139.201 317.121 144.266 316.71" fill="#00D967"/>
<path opacity="0.45" d="M181.596 287.967C181.774 287.821 181.951 288.144 181.774 288.276C177.09 292.063 172.789 296.364 168.939 301.12C165.075 305.935 161.989 311.19 158.972 316.637C158.931 316.725 158.821 316.739 158.74 316.695C158.671 316.651 158.644 316.548 158.671 316.475C163.696 305.187 172.23 295.249 181.596 287.967ZM160.419 292.048C157.729 299.447 156.118 308.783 156.651 316.754C156.651 316.842 156.719 316.915 156.801 316.901C156.883 316.901 156.951 316.827 156.937 316.739C157.06 308.724 158.166 299.74 160.801 292.21C160.897 291.975 160.515 291.814 160.419 292.048ZM151.107 275.695C149.837 289.289 150.861 303.777 154.247 316.959C154.302 317.18 154.602 317.062 154.561 316.857C153.278 309.943 152.117 303.043 151.585 296.012C151.066 289.245 151.121 282.507 151.339 275.725C151.326 275.578 151.121 275.563 151.107 275.695ZM139.679 295.997C143.475 301.796 147.68 312.526 152.677 317.209C152.773 317.268 152.896 317.238 152.964 317.136C153.005 317.062 153.005 316.959 152.95 316.886C148.445 311.557 144.021 301.561 139.979 295.792C139.843 295.601 139.529 295.792 139.679 295.997ZM180.613 304.996C173.076 308.651 165.321 312.937 158.931 318.648C158.74 318.824 158.931 319.191 159.149 319.029C166.181 314.009 172.981 309.077 180.709 305.333C180.9 305.231 180.804 304.893 180.613 304.996ZM133.767 303.997C139.256 307.521 145.113 315.036 151.093 317.503C151.285 317.576 151.435 317.297 151.244 317.194C145.454 314.141 139.529 307.139 133.917 303.689C133.739 303.572 133.576 303.88 133.767 303.997Z" fill="url(#paint1_linear_623_83)"/>
<path d="M172.789 316.563H140.689V345.423H172.789V316.563Z" fill="#B0D8FF"/>
<path d="M172.789 316.563H166.481V345.423H172.789V316.563Z" fill="#DAEBFF"/>
<path d="M267.984 83.4676H405.519C409.397 83.4676 412.551 86.8585 412.551 91.0275V204.485C412.551 208.654 409.397 212.045 405.519 212.045H267.984C264.106 212.045 260.952 208.654 260.952 204.485V91.0275C260.952 86.8585 264.106 83.4676 267.984 83.4676Z" fill="#B0D8FF"/>
<path d="M267.847 86.5649H402.966C406.762 86.5649 409.847 89.8825 409.847 93.9634V204.647C409.847 208.728 406.762 212.045 402.966 212.045H267.847C264.052 212.045 260.966 208.728 260.966 204.647V93.9634C260.952 89.8825 264.038 86.5649 267.847 86.5649Z" fill="url(#paint2_linear_623_83)"/>
<path d="M303.634 99.5269H286.908C286.335 99.5269 285.87 98.9397 285.87 98.2058C285.87 97.4718 286.335 96.8846 286.908 96.8846H303.634C304.208 96.8846 304.672 97.4718 304.672 98.2058C304.685 98.9397 304.221 99.5269 303.634 99.5269Z" fill="#00D967"/>
<path d="M319.937 111.359H291.592C291.018 111.359 290.554 110.771 290.554 110.037C290.554 109.303 291.018 108.716 291.592 108.716H319.937C320.51 108.716 320.975 109.303 320.975 110.037C320.988 110.771 320.51 111.359 319.937 111.359Z" fill="#006DFE"/>
<path d="M331.379 111.359H374.648C375.221 111.359 375.686 110.771 375.686 110.037C375.686 109.303 375.221 108.716 374.648 108.716H331.379C330.805 108.716 330.341 109.303 330.341 110.037C330.327 110.771 330.792 111.359 331.379 111.359Z" fill="#00D967"/>
<path d="M319.937 123.19H291.592C291.018 123.19 290.554 122.603 290.554 121.869C290.554 121.135 291.018 120.548 291.592 120.548H319.937C320.51 120.548 320.975 121.135 320.975 121.869C320.988 122.603 320.51 123.19 319.937 123.19Z" fill="#006DFE"/>
<path d="M315.267 135.022H286.908C286.335 135.022 285.87 134.435 285.87 133.701C285.87 132.967 286.335 132.38 286.908 132.38H315.267C315.841 132.38 316.305 132.967 316.305 133.701C316.305 134.435 315.841 135.022 315.267 135.022Z" fill="#00D967"/>
<path d="M375.385 135.022H326.696C326.122 135.022 325.658 134.435 325.658 133.701C325.658 132.967 326.122 132.38 326.696 132.38H375.385C375.959 132.38 376.423 132.967 376.423 133.701C376.423 134.435 375.959 135.022 375.385 135.022Z" fill="#006DFE"/>
<path d="M344.446 123.19H330.123C329.549 123.19 329.085 122.603 329.085 121.869C329.085 121.135 329.549 120.548 330.123 120.548H344.446C345.019 120.548 345.483 121.135 345.483 121.869C345.497 122.603 345.033 123.19 344.446 123.19Z" fill="#006DFE"/>
<path d="M369.61 123.19H355.273C354.7 123.19 354.235 122.603 354.235 121.869C354.235 121.135 354.7 120.548 355.273 120.548H369.61C370.183 120.548 370.647 121.135 370.647 121.869C370.647 122.603 370.183 123.19 369.61 123.19Z" fill="#006DFE"/>
<path d="M305.887 146.854H287.263C286.69 146.854 286.226 146.266 286.226 145.532C286.226 144.798 286.69 144.211 287.263 144.211H305.887C306.461 144.211 306.925 144.798 306.925 145.532C306.925 146.266 306.461 146.854 305.887 146.854Z" fill="#006DFE"/>
<path d="M344.5 146.854H316.155C315.581 146.854 315.117 146.266 315.117 145.532C315.117 144.798 315.581 144.211 316.155 144.211H344.5C345.074 144.211 345.538 144.798 345.538 145.532C345.551 146.266 345.087 146.854 344.5 146.854Z" fill="#00D967"/>
<path d="M365.186 146.854H354.59C354.017 146.854 353.553 146.266 353.553 145.532C353.553 144.798 354.017 144.211 354.59 144.211H365.172C365.746 144.211 366.21 144.798 366.21 145.532C366.223 146.266 365.759 146.854 365.186 146.854Z" fill="#006DFE"/>
<path d="M323.419 158.685H306.802C306.228 158.685 305.764 158.098 305.764 157.364C305.764 156.63 306.228 156.043 306.802 156.043H323.405C323.978 156.043 324.443 156.63 324.443 157.364C324.456 158.098 323.992 158.685 323.419 158.685Z" fill="#006DFE"/>
<path d="M363.151 158.685H334.792C334.219 158.685 333.755 158.098 333.755 157.364C333.755 156.63 334.219 156.043 334.792 156.043H363.138C363.711 156.043 364.175 156.63 364.175 157.364C364.189 158.098 363.725 158.685 363.151 158.685Z" fill="#006DFE"/>
<path d="M354.058 170.517H300.931C300.357 170.517 299.893 169.93 299.893 169.196C299.893 168.462 300.357 167.875 300.931 167.875H354.058C354.631 167.875 355.096 168.462 355.096 169.196C355.109 169.93 354.631 170.517 354.058 170.517Z" fill="#006DFE"/>
<path d="M393.791 170.517H361.704C361.131 170.517 360.666 169.93 360.666 169.196C360.666 168.462 361.131 167.875 361.704 167.875H393.791C394.364 167.875 394.828 168.462 394.828 169.196C394.842 169.93 394.364 170.517 393.791 170.517Z" fill="#006DFE"/>
<path d="M315.267 182.349H286.908C286.335 182.349 285.87 181.761 285.87 181.027C285.87 180.293 286.335 179.706 286.908 179.706H315.267C315.841 179.706 316.305 180.293 316.305 181.027C316.305 181.747 315.841 182.349 315.267 182.349Z" fill="#006DFE"/>
<path d="M349.566 182.349H321.22C320.647 182.349 320.183 181.761 320.183 181.027C320.183 180.293 320.647 179.706 321.22 179.706H349.566C350.139 179.706 350.603 180.293 350.603 181.027C350.617 181.747 350.153 182.349 349.566 182.349Z" fill="#00D967"/>
<path d="M352.297 194.18H309.232C308.659 194.18 308.195 193.593 308.195 192.859C308.195 192.125 308.659 191.538 309.232 191.538H352.297C352.87 191.538 353.334 192.125 353.334 192.859C353.348 193.578 352.87 194.18 352.297 194.18Z" fill="#006DFE"/>
<path d="M274.101 96.8993H272.012V99.5416H274.101V96.8993Z" fill="#006DFE"/>
<path d="M274.101 108.731H272.012V111.373H274.101V108.731Z" fill="#006DFE"/>
<path d="M274.101 120.548H272.012V123.19H274.101V120.548Z" fill="#006DFE"/>
<path d="M274.101 132.38H272.012V135.022H274.101V132.38Z" fill="#006DFE"/>
<path d="M274.101 144.211H272.012V146.854H274.101V144.211Z" fill="#006DFE"/>
<path d="M274.101 156.043H272.012V158.685H274.101V156.043Z" fill="#006DFE"/>
<path d="M274.101 161.959H272.012V164.601H274.101V161.959Z" fill="#006DFE"/>
<path d="M274.101 167.875H272.012V170.517H274.101V167.875Z" fill="#006DFE"/>
<path d="M274.101 173.79H272.012V176.433H274.101V173.79Z" fill="#006DFE"/>
<path d="M274.101 179.706H272.012V182.349H274.101V179.706Z" fill="#006DFE"/>
<path d="M274.101 185.622H272.012V188.264H274.101V185.622Z" fill="#006DFE"/>
<path d="M274.101 191.538H272.012V194.18H274.101V191.538Z" fill="#006DFE"/>
<path d="M274.101 197.454H272.012V200.096H274.101V197.454Z" fill="#006DFE"/>
<path d="M382.826 199.553L375.221 195.472C374.976 195.325 374.825 195.032 374.825 194.723V193.843C374.812 193.534 374.962 193.255 375.221 193.094L382.826 189.013C383.25 188.793 383.714 189.175 383.714 189.762V190.07C383.728 190.378 383.577 190.672 383.318 190.819L378.102 193.534C377.57 193.813 377.57 194.753 378.102 195.032L383.318 197.747C383.564 197.894 383.728 198.188 383.714 198.496V198.804C383.714 199.391 383.25 199.788 382.826 199.553Z" fill="#006DFE"/>
<path d="M389.722 186.708L386.213 202.078C386.158 202.401 385.912 202.65 385.598 202.665C385.175 202.665 384.861 202.151 384.984 201.637L388.493 186.268C388.547 185.945 388.793 185.696 389.107 185.681C389.531 185.681 389.845 186.195 389.722 186.708Z" fill="#006DFE"/>
<path d="M399.484 195.472L391.879 199.553C391.456 199.773 390.991 199.391 390.991 198.804V198.496C390.978 198.188 391.128 197.894 391.387 197.747L396.617 195.032C397.149 194.753 397.149 193.813 396.617 193.534L391.387 190.819C391.142 190.672 390.978 190.378 390.991 190.07V189.762C390.991 189.189 391.456 188.793 391.879 189.013L399.484 193.094C399.73 193.241 399.88 193.534 399.866 193.843V194.723C399.88 195.032 399.73 195.325 399.484 195.472Z" fill="#006DFE"/>
<path d="M285.884 294.823V314.449H291.906V296.79C290.185 295.381 288.042 294.676 285.884 294.823Z" fill="#B0D8FF"/>
<mask id="mask0_623_83" style="mask-type:luminance" maskUnits="userSpaceOnUse" x="285" y="294" width="7" height="21">
<path d="M285.884 294.823V314.449H291.906V296.79C290.185 295.381 288.042 294.676 285.884 294.823Z" fill="white"/>
</mask>
<g mask="url(#mask0_623_83)">
<path opacity="0.34" d="M284.492 298.522C284.492 298.522 289.68 299.506 292.643 305.436C295.606 311.367 298.077 304.746 297.504 302.03C296.93 299.315 297.231 296.54 295.701 294.456C294.172 292.371 291.25 289.406 287.277 290.536C283.304 291.667 282.771 291.036 282.99 293.604C283.208 296.173 283.59 298.904 283.59 298.904" fill="black"/>
</g>
<path d="M266.987 350.81C269.559 350.81 271.643 348.339 271.643 345.291C271.643 342.243 269.559 339.771 266.987 339.771C264.416 339.771 262.331 342.243 262.331 345.291C262.331 348.339 264.416 350.81 266.987 350.81Z" fill="#191E56"/>
<path d="M293.831 350.253C293.831 353.306 291.742 355.772 289.175 355.772C286.608 355.772 284.519 353.291 284.519 350.253C284.519 347.214 286.608 344.733 289.175 344.733C291.742 344.733 293.831 347.199 293.831 350.253Z" fill="#191E56"/>
<path d="M315.8 345.291C315.8 348.344 313.711 350.81 311.144 350.81C308.577 350.81 306.488 348.33 306.488 345.291C306.488 342.252 308.577 339.771 311.144 339.771C313.711 339.771 315.8 342.238 315.8 345.291Z" fill="#191E56"/>
<path d="M284.792 314.347C284.792 314.347 288.847 312.57 293.162 314.347L293.285 320.6L314.407 339.331V343.779H308.167L308.085 340.359L291.919 326.765L292.015 343.779L291.209 347.772H287.004L286.226 343.823L286.048 327.25L269.964 340.226L269.896 343.544L264.12 343.588V338.876L284.833 320.688V316.93L284.792 314.347Z" fill="#0542BF"/>
<path d="M299.852 198.408C299.852 198.408 306.72 195.795 316.947 198.408C327.173 201.021 333.277 211.972 333.618 220.824C333.959 229.675 330.273 284.048 316.742 297.788C303.211 311.528 269.076 304.761 262.099 301.898C255.122 299.036 249.975 287.747 249.975 287.747L284.942 261.001L286.799 203.619L299.852 198.408Z" fill="#006DFE"/>
<mask id="mask1_623_83" style="mask-type:luminance" maskUnits="userSpaceOnUse" x="249" y="197" width="85" height="110">
<path d="M299.852 198.408C299.852 198.408 306.72 195.795 316.947 198.408C327.173 201.021 333.277 211.972 333.618 220.824C333.959 229.675 330.273 284.048 316.742 297.788C303.211 311.528 269.076 304.761 262.099 301.898C255.122 299.036 249.975 287.747 249.975 287.747L284.942 261.001L286.799 203.619L299.852 198.408Z" fill="white"/>
</mask>
<g mask="url(#mask1_623_83)">
<path d="M301.163 195.736C301.163 195.736 307.648 196.925 311.089 205.557C314.53 214.188 313.793 227.048 312.892 243.738C311.99 260.429 316.442 260.84 316.947 272.466C317.452 284.092 314.912 295.043 300.658 300.24C286.403 305.436 274.442 307.77 256.133 304.629L242.52 287.938L249.142 255.379C249.142 255.379 261.458 242.094 263 232.112C264.543 222.13 276.49 197.263 281.338 193.637C286.185 190.011 301.163 195.736 301.163 195.736Z" fill="#004EFC"/>
</g>
<path d="M277.05 195.604L276.217 195.531C276.217 195.531 267.697 195.81 265.021 199.362C262.345 202.915 260.515 219.605 260.515 219.605L265.799 262.352C265.799 262.352 268.981 268.37 285.133 268.37C301.286 268.37 307.648 261.266 307.648 261.266L306.147 241.257C306.147 241.257 308.85 236.721 309.301 231.863C309.751 227.004 305.286 201.08 300.453 197.322C295.619 193.564 284.928 195.193 284.928 195.193L277.05 195.604Z" fill="#FFAB00"/>
<mask id="mask2_623_83" style="mask-type:luminance" maskUnits="userSpaceOnUse" x="260" y="194" width="50" height="75">
<path d="M277.05 195.604L276.217 195.531C276.217 195.531 267.697 195.81 265.021 199.362C262.345 202.915 260.515 219.605 260.515 219.605L265.799 262.352C265.799 262.352 268.981 268.37 285.133 268.37C301.286 268.37 307.648 261.266 307.648 261.266L306.147 241.257C306.147 241.257 308.85 236.721 309.301 231.863C309.751 227.004 305.286 201.08 300.453 197.322C295.619 193.564 284.928 195.193 284.928 195.193L277.05 195.604Z" fill="white"/>
</mask>
<g mask="url(#mask2_623_83)">
<path d="M295.688 203.678C295.688 203.678 293.462 206.482 294.281 211.605C295.101 216.728 298.61 223.921 297.272 226.651C295.933 229.382 293.367 233.947 293.926 235.019C294.486 236.09 295.606 236.677 295.606 236.677L302.897 241.639C302.897 241.639 304.822 242.212 306.147 241.228L307.048 241.507L285.611 253.926L283.153 250.094C283.153 250.094 290.95 241.037 291.646 237.954C292.342 234.872 291.837 234.652 293.435 231.584C295.032 228.516 296.616 226.534 295.592 223.143C294.568 219.752 292.697 214.247 293.08 211.003C293.462 207.759 293.681 205.762 295.688 203.678Z" fill="#FE8E00"/>
<path d="M267.452 204.06C267.452 204.06 266.113 210.108 267.533 217.477L272.613 243.9L273.487 243.415C273.473 243.43 267.452 210.93 267.452 204.06Z" fill="#FE8E00"/>
</g>
<path d="M248.09 343.338C248.09 343.338 247.585 347.742 247.585 351.28C247.585 354.818 249.838 357.636 248.691 360.954C247.544 364.271 238.15 364.374 231.446 365.226C224.742 366.077 218.83 364.536 219.677 359.119C220.523 353.702 231.405 355.845 235.665 349.122C239.925 342.399 238.642 341.298 238.642 341.298L248.09 343.338Z" fill="#FFAB00"/>
<path d="M283.973 346.744C283.973 346.744 283.468 351.148 283.481 354.686C283.495 358.223 285.734 361.042 284.587 364.36C283.44 367.677 274.033 367.78 267.342 368.631C260.652 369.483 254.726 367.941 255.573 362.539C256.419 357.137 267.301 359.251 271.561 352.543C275.821 345.834 274.538 344.718 274.538 344.718L283.973 346.744Z" fill="#FFAB00"/>
<path d="M266.769 261.574L265.786 262.352C265.786 262.352 236.73 272.437 234.027 281.92C231.323 291.403 235.638 345.805 235.638 345.805C235.638 345.805 243.53 352.499 250.521 345.115L251.094 294.294L280.45 282.595L288.943 282.874C288.943 282.874 299.128 275.079 299.757 274.536C300.385 273.993 308.413 267.827 308.413 267.827L303.457 259.078L266.769 261.574Z" fill="#1E2889"/>
<mask id="mask3_623_83" style="mask-type:luminance" maskUnits="userSpaceOnUse" x="233" y="259" width="76" height="90">
<path d="M266.769 261.574L265.786 262.352C265.786 262.352 236.73 272.437 234.027 281.92C231.323 291.403 235.638 345.805 235.638 345.805C235.638 345.805 243.53 352.499 250.521 345.115L251.094 294.294L280.45 282.595L288.943 282.874C288.943 282.874 299.128 275.079 299.757 274.536C300.385 273.993 308.413 267.827 308.413 267.827L303.457 259.078L266.769 261.574Z" fill="white"/>
</mask>
<g mask="url(#mask3_623_83)">
<path d="M233.126 276.253C233.126 276.253 244.923 279.116 247.08 294.808C249.237 310.501 251.791 322.083 251.791 322.083L257.798 299.006L278.771 286.911L291.796 275.901L298.377 259.651L287.946 253.75L256.269 256.627L239.598 265.934L233.126 276.253Z" fill="#1A1A7C"/>
</g>
<path d="M287.413 266.594C287.413 266.594 272.053 280.686 270.769 291.08C269.472 301.473 270.769 347.302 270.769 347.302C270.769 347.302 280.668 354.407 287.413 347.302C287.413 347.302 284.614 305.451 290.595 298.331C296.575 291.212 307.13 284.782 308.413 274.257C309.696 263.732 307.648 261.266 307.648 261.266L297.449 259.489L287.413 266.594Z" fill="#1E2889"/>
<mask id="mask4_623_83" style="mask-type:luminance" maskUnits="userSpaceOnUse" x="270" y="259" width="39" height="92">
<path d="M287.413 266.594C287.413 266.594 272.053 280.686 270.769 291.08C269.472 301.473 270.769 347.302 270.769 347.302C270.769 347.302 280.668 354.407 287.413 347.302C287.413 347.302 284.614 305.451 290.595 298.331C296.575 291.212 307.13 284.782 308.413 274.257C309.696 263.732 307.648 261.266 307.648 261.266L297.449 259.489L287.413 266.594Z" fill="white"/>
</mask>
<g mask="url(#mask4_623_83)">
<path d="M268.08 312.145C268.462 310.912 273.801 287.542 295.947 292.973L302.897 289.391C302.897 289.391 312.004 281.274 312.673 280.275C313.342 279.277 312.769 270.969 312.892 269.882C313.014 268.796 312.892 256.656 312.892 256.656L269.063 255.555L269.65 272.422L268.08 298.126V312.145Z" fill="#1A1A7C"/>
</g>
<path d="M170.373 261.765V371.141C170.373 371.567 170.045 371.919 169.649 371.919H167.669C167.273 371.919 166.946 371.567 166.946 371.141V261.765C166.946 261.339 167.273 260.987 167.669 260.987H169.649C170.045 260.987 170.373 261.339 170.373 261.765Z" fill="#191E56"/>
<path d="M339.339 261.765V371.141C339.339 371.567 339.011 371.919 338.615 371.919H336.636C336.24 371.919 335.912 371.567 335.912 371.141V261.765C335.912 261.339 336.24 260.987 336.636 260.987H338.615C339.011 260.987 339.339 261.339 339.339 261.765Z" fill="#191E56"/>
<path d="M206.323 260.047L212.59 357.446C212.618 357.857 212.331 358.209 211.949 358.238L209.887 358.385C209.505 358.414 209.177 358.106 209.15 357.695L202.882 260.297C202.855 259.886 203.142 259.533 203.524 259.504L205.586 259.357C205.968 259.328 206.296 259.636 206.323 260.047Z" fill="#191E56"/>
<path d="M369.842 260.047L376.109 357.446C376.136 357.857 375.849 358.209 375.467 358.238L373.405 358.385C373.023 358.414 372.695 358.106 372.668 357.695L366.401 260.297C366.374 259.886 366.66 259.533 367.043 259.504L369.104 259.357C369.487 259.328 369.814 259.636 369.842 260.047Z" fill="#191E56"/>
<path d="M161.552 257.287H374.62C375.44 257.287 376.109 258.007 376.109 258.887V263.086C376.109 263.967 375.44 264.686 374.62 264.686H161.552C160.733 264.686 160.064 263.967 160.064 263.086V258.887C160.064 258.007 160.733 257.287 161.552 257.287Z" fill="#0542BF"/>
<path d="M360.352 239.848H315.759V245.661H360.352V239.848Z" fill="#FFAB00"/>
<path d="M361.526 245.661H316.933V251.474H361.526V245.661Z" fill="#00D967"/>
<path d="M359.369 251.474H314.776V257.287H359.369V251.474Z" fill="#DE4D30"/>
<path d="M209.587 185.402L212.017 188.954C213.123 186.415 215.458 185.284 216.919 184.8L213.56 182.055C213.123 182.055 212.672 182.128 212.249 182.29C211.348 182.613 210.201 183.361 209.641 185.152C209.628 185.24 209.6 185.314 209.587 185.402Z" fill="#9BB4C9"/>
<path d="M176.367 215.612C176.367 217.256 177.418 218.68 178.906 219.047C179.152 219.106 179.398 219.135 179.644 219.135C179.862 219.135 180.067 219.106 180.285 219.062C182.06 218.68 183.221 216.831 182.866 214.922C182.511 213.014 180.791 211.766 179.016 212.148C177.473 212.471 176.353 213.924 176.367 215.612Z" fill="#4143C5"/>
<path d="M205.763 181.703C205.763 183.655 207.224 185.226 209.04 185.226C209.245 185.226 209.464 185.211 209.668 185.167C210.228 183.376 211.375 182.628 212.276 182.305C212.304 182.114 212.317 181.908 212.317 181.717C212.317 179.765 210.856 178.194 209.04 178.194C207.224 178.194 205.763 179.765 205.763 181.703Z" fill="#4143C5"/>
<path d="M181.583 212.779C181.951 213.073 182.252 213.44 182.484 213.865L196.547 197.234L199.483 193.755L203.811 188.631L207.211 184.609C206.842 184.33 206.514 183.978 206.282 183.567L202.213 188.367L199.346 191.758L196.342 195.311L181.583 212.779Z" fill="#9BB4C9"/>
<path d="M174.646 254.366V254.293C185.515 249.977 194.704 253.94 195.455 254.263C193.257 254.909 185.146 256.818 174.646 254.366Z" fill="#4143C5"/>
<path d="M178.906 219.047L183.794 249.155L184.45 253.162L184.518 253.588L185.842 253.324L185.815 253.162L185.146 249.052L180.272 219.062C180.067 219.106 179.848 219.135 179.63 219.135C179.384 219.135 179.138 219.106 178.906 219.047Z" fill="#9BB4C9"/>
<path d="M211.539 190.76L214.857 198.76L215.43 200.14L220.441 195.575L224.961 191.068L227.678 188.367L226.763 187.516L226.736 187.501L226.708 187.486L218.366 183.67C217.929 183.743 217.492 183.846 217.069 183.993C215.594 184.477 213.273 185.607 212.167 188.147C212.044 188.441 211.935 188.734 211.839 189.042C211.676 189.6 211.58 190.173 211.539 190.76Z" fill="#4143C5"/>
<path d="M224.182 197.234C227.5 193.887 228.948 189.762 227.432 188.015C225.917 186.268 221.998 187.589 218.68 190.936C215.362 194.283 213.915 198.408 215.43 200.155C216.946 201.902 220.865 200.581 224.182 197.234Z" fill="#859AD0"/>
<path d="M195.455 254.366H174.646V257.287H195.455V254.366Z" fill="#859AD0"/>
<path d="M387.687 327.91C387.687 328.175 387.646 328.424 387.551 328.674C386.499 331.536 379.604 333.753 371.248 333.753C362.796 333.753 355.833 331.492 354.918 328.571L354.809 327.91C354.809 324.681 362.168 322.068 371.248 322.068C380.328 322.068 387.687 324.696 387.687 327.91Z" fill="#191E56"/>
<path d="M387.551 328.674L381.884 364.565C371.548 370.892 360.612 364.565 360.612 364.565L354.904 328.571C355.819 331.492 362.783 333.753 371.234 333.753C379.604 333.753 386.499 331.536 387.551 328.674Z" fill="#0542BF"/>
<path d="M275.985 186.371C275.985 186.371 277.378 189.512 276.231 195.531C276.231 195.531 277.118 198.467 280.245 198.408C283.372 198.349 284.956 195.178 284.956 195.178C284.956 195.178 283.467 192.61 284.082 187.163L284.123 185.138L280.177 182.261L275.985 186.371Z" fill="#FFACA6"/>
<mask id="mask5_623_83" style="mask-type:luminance" maskUnits="userSpaceOnUse" x="275" y="182" width="10" height="17">
<path d="M275.985 186.371C275.985 186.371 277.378 189.512 276.231 195.531C276.231 195.531 277.118 198.467 280.245 198.408C283.372 198.349 284.956 195.178 284.956 195.178C284.956 195.178 283.467 192.61 284.082 187.163L284.123 185.138L280.177 182.261L275.985 186.371Z" fill="white"/>
</mask>
<g mask="url(#mask5_623_83)">
<path d="M275.794 190.334C275.794 190.334 281.269 189.175 286.021 193.182C286.021 193.182 286.335 184.521 286.553 184.228C286.772 183.934 277.746 179.604 277.746 179.604C277.746 179.604 274.565 181.644 274.483 183.273C274.401 184.903 275.794 190.334 275.794 190.334Z" fill="#EA756C"/>
</g>
<path d="M267.015 169.842C267.015 169.842 258.918 169.533 263.451 151.977C263.451 151.977 267.602 155.338 274.988 155.793C282.361 156.248 290.595 156.072 291.619 170.209C292.042 179.325 284.068 187.163 284.068 187.163L276.859 182.246L267.015 169.842Z" fill="#1E2889"/>
<mask id="mask6_623_83" style="mask-type:luminance" maskUnits="userSpaceOnUse" x="262" y="151" width="30" height="37">
<path d="M267.015 169.842C267.015 169.842 258.918 169.533 263.451 151.977C263.451 151.977 267.602 155.338 274.988 155.793C282.361 156.248 290.595 156.072 291.619 170.209C292.042 179.325 284.068 187.163 284.068 187.163L276.859 182.246L267.015 169.842Z" fill="white"/>
</mask>
<g mask="url(#mask6_623_83)">
<path d="M261.143 163.794C261.143 163.794 261.266 164.807 264.83 163.794C268.394 162.781 272.913 161.181 278.825 165.291C284.737 169.401 286.936 177.959 291.632 176.932L288.11 185.006L280.45 190.334C280.45 190.334 268.243 186.532 267.766 185.108C267.288 183.684 263.806 174.862 263.301 173.497C262.796 172.132 262.072 168.785 262.072 168.785L261.143 163.794Z" fill="#172272"/>
</g>
<path d="M266.687 167.61C266.687 167.61 264.475 187.486 271.261 188.631C278.047 189.776 282.539 181.424 282.539 181.424C282.539 181.424 285.939 180.969 285.597 177.093C285.256 173.218 282.594 174.671 282.594 174.671C282.594 174.671 279.576 173.262 279.631 169.842C279.631 169.842 275.985 170.752 274.333 167.155C274.333 167.155 271.575 169.21 268.776 166.054C268.762 166.054 268.039 167.933 266.687 167.61Z" fill="#FFACA6"/>
<mask id="mask7_623_83" style="mask-type:luminance" maskUnits="userSpaceOnUse" x="266" y="166" width="20" height="23">
<path d="M266.687 167.61C266.687 167.61 264.475 187.486 271.261 188.631C278.047 189.776 282.539 181.424 282.539 181.424C282.539 181.424 285.939 180.969 285.597 177.093C285.256 173.218 282.594 174.671 282.594 174.671C282.594 174.671 279.576 173.262 279.631 169.842C279.631 169.842 275.985 170.752 274.333 167.155C274.333 167.155 271.575 169.21 268.776 166.054C268.762 166.054 268.039 167.933 266.687 167.61Z" fill="white"/>
</mask>
<g mask="url(#mask7_623_83)">
<path d="M265.403 170.194C268.216 170.473 271.001 170.913 273.773 171.53C277.883 172.484 280.04 178.914 284.396 178.136C288.751 177.358 286.881 174.803 286.881 174.803L282.812 168.873L273.295 165.555L267.533 164.528L265.185 166.583L265.403 170.194Z" fill="#EA756C"/>
</g>
<path d="M295.606 236.677C295.606 236.677 288.642 244.56 283.345 246.571C278.047 248.582 275.507 246.542 273.391 251.166L272.968 252.135C272.968 252.135 280.6 254.777 286.116 251.856L302.911 241.639L295.606 236.677Z" fill="#FFACA6"/>
<path d="M295.933 252.37H233.126V257.302H295.933V252.37Z" fill="#78C2FF"/>
<path d="M279.262 257.287H224.551L216.632 216.067H271.343L279.262 257.287Z" fill="#B0D8FF"/>
<path d="M275.166 257.287H220.455L212.536 216.067H267.247L275.166 257.287Z" fill="#78C2FF"/>
<path d="M402.706 235.606H375.44V248.568H402.706V235.606Z" fill="#DAEBFF"/>
<path d="M413.725 248.568H386.458V261.53H413.725V248.568Z" fill="#EBF5FF"/>
<path d="M242.474 239.271C245.288 238.842 247.214 235.793 246.775 232.462C246.335 229.131 243.697 226.778 240.883 227.207C238.068 227.637 236.142 230.685 236.582 234.016C237.021 237.347 239.659 239.7 242.474 239.271Z" fill="white"/>
<defs>
<linearGradient id="paint0_linear_623_83" x1="173.088" y1="36.3068" x2="175.258" y2="245.127" gradientUnits="userSpaceOnUse">
<stop stop-color="#B0D8FF"/>
<stop offset="0.02" stop-color="#B3D9FF"/>
<stop offset="0.15" stop-color="#C4E1FF"/>
<stop offset="0.3" stop-color="#D1E7FF"/>
<stop offset="0.51" stop-color="#D8EAFF"/>
<stop offset="1" stop-color="#DAEBFF"/>
</linearGradient>
<linearGradient id="paint1_linear_623_83" x1="157.001" y1="275.281" x2="158.88" y2="319.36" gradientUnits="userSpaceOnUse">
<stop offset="0.37" stop-color="#86CF94"/>
<stop offset="0.99" stop-color="#008166"/>
</linearGradient>
<linearGradient id="paint2_linear_623_83" x1="335.397" y1="61.4704" x2="335.397" y2="228.295" gradientUnits="userSpaceOnUse">
<stop stop-color="#B0D8FF"/>
<stop offset="0.02" stop-color="#B3D9FF"/>
<stop offset="0.15" stop-color="#C4E1FF"/>
<stop offset="0.3" stop-color="#D1E7FF"/>
<stop offset="0.51" stop-color="#D8EAFF"/>
<stop offset="1" stop-color="#DAEBFF"/>
</linearGradient>
</defs>
</svg>
